<?xml version="1.0" encoding="UTF-8" standalone="no"?>
<!DOCTYPE svg PUBLIC "-//W3C//DTD SVG 1.1//EN" "http://www.w3.org/Graphics/SVG/1.1/DTD/svg11.dtd">
<svg width="100%" height="100%" viewBox="0 0 256 259" version="1.1" xmlns="http://www.w3.org/2000/svg" xmlns:xlink="http://www.w3.org/1999/xlink" xml:space="preserve" xmlns:serif="http://www.serif.com/" style="fill-rule:evenodd;clip-rule:evenodd;">
    <g transform="matrix(1,0,0,1,-0,2.036279)">
        <g transform="matrix(1.615586,0,0,1.593338,-77.624889,-75.825355)">
            <path d="M51.213,47.589C49.009,47.589 47.639,49.326 48.157,51.481L52.647,70.169C53.164,72.319 54.003,75.807 54.517,77.951L84.894,204.368C85.41,206.516 87.617,208.258 89.82,208.258L171.365,208.258C173.555,208.255 175.356,206.452 175.356,204.262C175.356,204.259 175.356,204.256 175.356,204.253L175.356,179.199C175.354,177.003 173.549,175.197 171.353,175.195L116.503,175.195C114.292,175.195 112.044,173.463 111.483,171.323L80.002,51.46C79.44,49.322 77.186,47.589 74.994,47.589L51.213,47.589Z" style="fill:rgb(77,166,255);"/>
        </g>
        <g transform="matrix(1.615586,0,0,1.593338,-77.624889,-75.825355)">
            <path d="M94.031,48.388C91.827,48.388 90.513,50.116 91.098,52.256L119.438,155.946C120.023,158.083 122.279,159.815 124.492,159.815L131.784,159.815C133.991,159.815 136.169,158.065 136.646,155.915L159.66,52.287C160.139,50.133 158.737,48.387 156.53,48.387L151.556,48.387C149.349,48.387 147.217,50.143 146.794,52.307L132.766,124.078C132.343,126.244 130.2,127.999 127.996,127.999L129.288,127.999C127.076,127.999 124.828,126.262 124.268,124.132L105.382,52.254C104.822,50.118 102.581,48.387 100.376,48.387L94.03,48.387L94.031,48.388Z" style="fill:rgb(77,166,255);stroke:rgb(151,151,151);stroke-width:1px;"/>
        </g>
        <g transform="matrix(1.615586,0,0,1.593338,-77.624889,-75.825355)">
            <path d="M146.827,159.786C144.615,159.786 143.235,158.053 143.751,155.889L168.541,51.883C169.054,49.731 171.26,47.986 173.472,47.986L179.052,47.986C181.263,47.986 182.644,49.719 182.132,51.883L157.466,155.889C156.956,158.042 154.748,159.786 152.536,159.786L146.827,159.786ZM175.681,161.196C177.891,161.196 180.112,159.449 180.635,157.318L206.391,52.4C206.917,50.257 205.557,48.521 203.336,48.521L196.543,48.521C194.33,48.521 192.107,50.268 191.584,52.4L165.846,157.317C165.321,159.459 166.679,161.195 168.896,161.195L175.681,161.195L175.681,161.196Z" style="fill:white;"/>
        </g>
    </g>
</svg>
